<?xml version="1.0" encoding="UTF-8" standalone="no"?>
<svg
   xmlns:dc="http://purl.org/dc/elements/1.1/"
   xmlns:cc="http://web.resource.org/cc/"
   xmlns:rdf="http://www.w3.org/1999/02/22-rdf-syntax-ns#"
   xmlns:svg="http://www.w3.org/2000/svg"
   xmlns="http://www.w3.org/2000/svg"
   xmlns:xlink="http://www.w3.org/1999/xlink"
   xmlns:sodipodi="http://sodipodi.sourceforge.net/DTD/sodipodi-0.dtd"
   xmlns:inkscape="http://www.inkscape.org/namespaces/inkscape"
   height="660"
   width="600"
   version="1.0"
   id="svg2"
   sodipodi:version="0.32"
   inkscape:version="0.45.1"
   sodipodi:docname="Blason_ville_fr_Lagnieu_(Ain).svg"
   sodipodi:docbase="\Users\Augustin\Documents\heral\communes\Ain"
   inkscape:export-filename="/Users/Augustin/Documents/temp/tyty.png"
   inkscape:export-xdpi="144"
   inkscape:export-ydpi="144"
   inkscape:output_extension="org.inkscape.output.svg.inkscape">
  <metadata
     id="metadata49">
    <rdf:RDF>
      <cc:Work
         rdf:about="">
        <dc:format>image/svg+xml</dc:format>
        <dc:type
           rdf:resource="http://purl.org/dc/dcmitype/StillImage" />
        <dc:title>Gabarit d'un blason en pointe pour le projet Blasons de Wikipédia</dc:title>
        <dc:date>03-AUG-2006</dc:date>
        <dc:creator>
          <cc:Agent>
            <dc:title>Jérôme BLUM (wagner51)</dc:title>
          </cc:Agent>
        </dc:creator>
        <cc:license
           rdf:resource="http://web.resource.org/cc/PublicDomain" />
        <dc:language>fr</dc:language>
        <dc:subject>
          <rdf:Bag>
            <rdf:li>gabarit modèle blason projet wikipédia</rdf:li>
          </rdf:Bag>
        </dc:subject>
      </cc:Work>
      <cc:License
         rdf:about="http://web.resource.org/cc/PublicDomain">
        <cc:permits
           rdf:resource="http://web.resource.org/cc/Reproduction" />
        <cc:permits
           rdf:resource="http://web.resource.org/cc/Distribution" />
        <cc:permits
           rdf:resource="http://web.resource.org/cc/DerivativeWorks" />
      </cc:License>
    </rdf:RDF>
  </metadata>
  <sodipodi:namedview
     inkscape:window-height="712"
     inkscape:window-width="1024"
     inkscape:pageshadow="2"
     inkscape:pageopacity="0.0"
     guidetolerance="10.0"
     gridtolerance="10.0"
     objecttolerance="10.0"
     borderopacity="1.0"
     bordercolor="#666666"
     pagecolor="#ffffff"
     id="base"
     showgrid="false"
     height="660px"
     inkscape:zoom="0.77878755"
     inkscape:cx="300"
     inkscape:cy="329.99986"
     inkscape:window-x="111"
     inkscape:window-y="12"
     inkscape:current-layer="layer3" />
  <desc
     id="desc4">Flag of Canton of Valais (Wallis)</desc>
  <defs
     id="defs6">
    <linearGradient
       id="linearGradient2893">
      <stop
         style="stop-color:white;stop-opacity:0.3137255;"
         offset="0"
         id="stop2895" />
      <stop
         id="stop2897"
         offset="0.19"
         style="stop-color:white;stop-opacity:0.25098041;" />
      <stop
         style="stop-color:#6b6b6b;stop-opacity:0.1254902;"
         offset="0.60000002"
         id="stop2901" />
      <stop
         style="stop-color:black;stop-opacity:0.1254902;"
         offset="1"
         id="stop2899" />
    </linearGradient>
    <radialGradient
       inkscape:collect="always"
       xlink:href="#linearGradient2893"
       id="radialGradient3163"
       gradientUnits="userSpaceOnUse"
       gradientTransform="matrix(1.353218,0,0,1.348928,-77.62935,-85.74693)"
       cx="221.44487"
       cy="226.33101"
       fx="221.44487"
       fy="226.33101"
       r="300" />
  </defs>
  <g
     inkscape:groupmode="layer"
     id="layer3"
     inkscape:label="Fond écu"
     style="display:inline">
    <path
       id="path2855"
       style="fill:#e20909;fill-opacity:1;fill-rule:evenodd;stroke:none;stroke-width:1px;stroke-linecap:butt;stroke-linejoin:miter;stroke-opacity:1"
       d="M 300,658.5 C 300,658.5 598.50001,546.17969 598.50001,260.72817 C 598.50001,-24.723354 598.50001,2.1764765 598.50001,2.1764765 L 1.5,2.1764765 L 1.5,260.72817 C 1.5,546.17969 300,658.5 300,658.5 z "
       sodipodi:nodetypes="cccccc" />
    <g
       id="g5099"
       transform="matrix(1.1206898,0,0,1.1206898,-75.872561,-151.87372)">
      <g
         transform="translate(32.5184,26.4278)"
         id="g3847">
        <path
           d="M 205.46348,251.10134 C 205.13905,251.09722 204.82283,251.11892 204.49473,251.13259 C 203.79481,251.16176 203.08763,251.23334 202.36973,251.35134 C 197.93819,251.52044 193.60999,252.53272 189.21348,252.85134 C 178.28505,257.7009 168.11445,267.85649 168.86973,280.63259 C 163.88582,294.41676 149.17215,306.05988 154.61973,322.28884 C 158.98327,336.1832 189.04014,316.69351 182.71348,332.22634 L 184.68223,332.22634 C 187.84461,344.14805 192.39749,356.31072 185.85309,368.85487 C 188.01512,377.8072 182.46614,387.9776 187.02598,395.28884 C 183.77232,407.11097 199.70865,421.69847 187.15098,429.63259 C 177.99695,433.39466 162.26011,433.14855 161.21348,446.32009 C 159.86983,459.26264 159.14531,472.3116 154.80723,484.69509 C 151.28298,495.92375 152.31269,509.34823 159.21348,519.07009 C 172.16053,523.78883 179.89162,504.80904 176.43223,494.41384 C 173.67747,481.20406 174.77051,464.5934 184.61973,454.94509 C 182.89781,447.59939 208.27469,444.93904 200.71348,457.00759 C 199.94109,469.62256 211.3791,479.40177 209.93223,492.63259 C 211.70339,504.47844 205.04897,513.45254 198.86973,522.50759 C 189.80444,537.27696 205.79519,541.47314 218.18223,534.38259 C 227.48634,531.51983 219.81698,520.04988 229.36973,518.13259 C 231.0462,505.66678 230.28809,492.81128 229.46348,480.22634 C 234.03306,472.09536 235.61755,458.27214 237.80723,453.03884 C 247.50578,457.38357 261.75122,454.96127 271.27598,461.28884 C 284.18133,460.50421 297.81665,459.48968 309.36973,457.66384 C 315.69111,454.27093 324.30813,458.56856 330.46348,455.32009 C 336.33787,465.1151 334.81125,475.50927 336.21348,486.32009 C 334.80501,499.98075 328.1195,512.99169 315.71348,519.50759 C 311.47621,525.14794 306.22008,537.59366 318.77598,534.16384 C 331.0735,542.22175 340.44233,525.74754 346.52598,517.32009 C 348.56243,504.58955 352.20868,491.41157 361.46348,481.66384 C 368.91587,477.74723 370.94688,469.78074 372.96348,463.60134 C 385.46994,468.10986 391.03428,479.55453 388.71348,492.63259 C 386.59205,505.68719 385.69681,519.96551 374.24473,528.25759 C 361.59458,544.59561 390.09529,548.11551 398.74473,538.07009 C 403.55497,531.17699 407.46799,524.81688 406.61973,515.10134 C 408.51836,500.28992 409.43502,482.14271 420.71348,471.60134 C 423.53093,463.7339 430.61079,458.7066 431.68223,450.41384 C 434.46177,437.25206 440.14443,423.14271 432.40098,410.38259 C 436.46604,398.92135 425.93438,389.41696 426.43223,378.07009 C 417.40788,370.3679 412.34792,357.43446 403.43223,351.38259 C 394.64972,345.92902 384.72976,336.55412 373.71348,341.75759 C 365.01806,335.80048 355.25774,341.6309 345.83848,341.53884 C 337.08442,337.27624 328.52669,341.45316 321.15098,344.50759 C 311.27785,338.99063 304.72054,348.94985 294.83848,343.38259 C 289.69014,342.21091 284.54935,341.02303 279.40098,339.85134 C 270.42278,339.40817 263.49273,336.91685 260.40098,330.58723 C 258.2362,319.69232 256.96868,309.65531 251.80723,299.69509 C 251.40605,289.55454 239.32188,280.68137 243.90098,270.00759 C 250.02509,260.08237 241.32813,254.98678 232.99473,259.41384 C 223.86932,259.65047 215.52096,251.229 205.46348,251.10134 z "
           style="fill:#000000;fill-rule:nonzero;stroke:none;stroke-width:1.32700002;stroke-linecap:round;stroke-linejoin:miter;stroke-miterlimit:3.86400008;stroke-dasharray:none"
           id="path3770" />
        <path
           d="M 201.52598,254.44509 C 189.19072,254.50412 179.85872,261.57353 173.52598,271.97634 C 166.31075,281.64292 184.07257,275.67907 176.11973,281.47634 C 169.10435,288.97792 156.25208,302.74929 157.58848,315.94509 C 162.21226,307.52434 168.50316,313.65245 159.65098,317.13259 C 151.84351,330.50987 175.21416,312.46552 170.61973,320.72634 C 156.94751,325.35364 174.51735,323.84572 179.68223,321.35134 C 187.43301,323.77798 194.52698,323.18093 202.02598,321.32009 C 206.08737,311.23635 209.49466,321.83523 202.27598,324.82009 C 194.737,324.37856 190.97057,327.6642 187.15098,330.32009 L 190.80723,338.22634 L 192.52598,342.35134 C 191.0427,345.38714 199.9017,338.21859 202.58848,342.32009 C 201.78863,344.49466 201.12323,345.50573 200.55723,345.85134 C 201.65584,345.88363 201.19583,346.41315 202.21348,346.91384 L 202.21348,349.72634 C 202.23737,350.24307 201.61973,350.27212 201.61973,350.78884 C 201.61976,351.56392 203.40098,351.55118 203.40098,353.10134 C 203.40099,353.87643 202.21348,355.92836 202.21348,356.44509 C 202.21351,357.47851 203.77598,357.2303 203.77598,359.03884 C 203.77599,359.55556 202.58848,361.89712 202.58848,362.41384 C 202.58846,363.18893 203.01859,363.67837 202.99473,364.19509 L 202.99473,365.75759 C 202.77989,365.7576 202.69085,366.00759 202.21348,366.00759 C 201.65741,366.00759 201.20801,365.78255 200.80723,365.41384 C 200.70218,365.93025 200.59229,366.48821 200.43223,367.10134 C 208.8175,375.34729 197.31193,387.56435 201.49473,398.38259 C 204.95706,406.92284 192.71951,399.65775 199.86973,408.97634 C 206.70285,409.13687 206.36875,400.48724 205.86973,395.82009 C 215.07317,399.30897 208.12374,418.13666 220.05723,413.47634 C 222.11695,418.74909 214.00322,425.84828 216.24473,416.72634 C 212.62672,419.08672 201.7365,408.27836 208.05723,417.50759 C 213.61722,423.44035 213.8931,425.64227 205.96348,426.03884 C 195.65419,426.31198 192.37978,431.85959 183.30723,435.10134 C 174.07329,435.84042 162.44222,440.36285 163.74473,451.63259 C 163.20007,465.00138 159.75255,478.08768 155.86973,490.75759 C 155.71582,498.60253 156.76626,510.74077 162.43223,508.44509 C 170.08043,510.54619 175.14146,492.41384 170.55723,484.35134 C 171.41841,471.62081 175.15496,457.26137 181.65098,447.41384 C 193.68417,439.80054 210.44889,449.18308 221.27598,440.25759 C 227.74675,441.80337 236.90544,447.87098 238.43223,436.28884 C 245.85964,439.10538 236.28152,448.43943 247.18223,450.85134 C 257.66533,458.10646 263.06041,450.64366 259.61973,440.60134 C 259.72466,430.94313 267.55125,433.24691 263.18223,442.66384 C 258.92506,449.71487 272.67659,461.90933 270.40098,456.75759 C 263.4886,448.71244 274.76343,449.87461 278.05723,449.38259 C 271.24858,441.23556 278.75099,440.38588 282.58848,446.78884 C 286.10851,445.20189 288.62129,442.71625 290.93223,440.35134 C 290.82214,439.82736 290.61518,439.26797 290.30723,438.60134 C 291.23158,438.43458 292.51828,438.06937 293.46348,437.82009 C 296.78737,434.71822 300.35212,432.68787 306.71348,434.91384 C 313.37524,439.05696 294.4157,442.60871 307.80723,441.78884 C 311.40141,438.45398 315.61207,419.0232 315.43223,431.07009 C 316.11779,430.02445 317.7811,429.74991 318.71348,428.53884 C 318.71347,428.02214 318.71348,427.24307 318.71348,426.72634 C 318.71347,426.20961 319.67358,425.69509 320.15098,425.69509 C 320.86704,425.69508 322.77598,427.2554 322.77598,428.28884 C 322.77596,429.83899 319.43223,431.90549 319.43223,432.16384 C 319.43225,432.68055 320.36973,434.49088 320.36973,435.00759 C 320.36975,435.52429 320.15098,435.24924 320.15098,435.50759 C 319.91226,435.76595 319.90961,435.78884 319.43223,435.78884 C 318.60132,435.78884 315.94971,434.61365 315.27598,432.94509 C 312.02709,438.89356 321.37021,439.82491 318.49473,443.22634 C 321.89553,439.96823 323.15113,436.45074 328.43223,439.57009 C 337.67571,437.91174 332.36694,425.59812 339.40098,419.66384 C 335.16224,418.6065 332.70505,406.40308 337.08848,407.07009 C 339.53281,402.52926 345.44826,425.96412 345.61973,411.66384 C 354.71774,408.90563 346.12757,424.9088 355.05723,424.88259 C 356.12297,425.41188 356.83749,426.11422 357.33848,426.91384 C 357.48792,426.49393 357.61973,426.12206 357.61973,425.94509 C 357.61973,425.42834 357.36973,425.45342 357.36973,425.19509 C 356.65368,424.41998 355.21348,424.14315 355.21348,422.85134 C 355.75051,421.88251 356.29447,421.77673 356.93223,421.78884 C 357.14482,421.79288 357.38104,421.82009 357.61973,421.82009 C 360.96145,421.8201 361.43223,423.36148 361.43223,425.94509 C 361.43225,428.52866 360.48075,430.6115 359.52598,433.19509 L 358.55723,433.19509 C 358.46543,433.05597 358.39324,432.95041 358.30723,432.82009 C 358.05651,437.30686 357.17777,441.66351 364.08848,441.07009 C 364.16437,440.68786 364.34695,440.30137 364.52598,439.91384 C 363.33251,438.88042 361.68223,439.37863 361.68223,437.57009 C 361.68223,436.27829 363.34114,436.03884 364.05723,436.03884 C 365.25066,436.03883 366.21615,437.07009 366.93223,437.07009 C 367.40958,437.07008 368.84116,436.79721 369.55723,436.53884 C 370.03462,436.28046 370.72479,435.7743 370.96348,435.25759 C 370.96345,434.99924 370.9748,434.21181 371.21348,433.69509 C 371.21348,433.69508 371.70484,433.19509 372.18223,433.19509 C 373.37571,433.19509 374.55723,434.73251 374.55723,435.50759 L 374.55723,439.38259 C 373.84113,440.15766 373.12837,440.69509 372.65098,440.69509 C 372.17359,440.69509 370.75336,440.16384 370.27598,440.16384 C 369.79858,440.16385 369.78461,440.68672 369.30723,440.94509 C 370.26203,442.23689 372.40098,443.00322 372.40098,445.07009 C 372.40098,445.58681 371.68223,446.61586 371.68223,447.13259 C 371.68223,447.64931 372.65098,449.45962 372.65098,449.97634 C 372.65097,450.49308 371.9209,452.30953 371.68223,453.60134 C 371.20482,453.8597 370.75336,454.13259 370.27598,454.13259 C 369.3212,454.13259 369.05723,452.29718 369.05723,452.03884 C 369.05726,451.52211 369.30723,451.2743 369.30723,450.75759 C 368.59116,450.75759 367.4096,451.03267 366.93223,450.25759 C 366.77032,450.08234 366.62302,449.86435 366.46348,449.63259 C 365.80152,450.66026 364.43296,449.90229 362.80723,445.25759 C 351.6547,450.25648 355.9115,433.17319 350.93223,429.35134 C 347.82664,425.80349 345.8398,420.23646 341.77598,426.91384 C 343.09335,430.65453 346.75652,443.434 346.77598,431.60134 C 358.59458,434.09394 346.53465,454.42439 361.83848,452.82009 C 364.48453,460.37525 374.89468,452.43025 378.36973,461.25759 C 386.36611,457.95107 385.98734,461.55747 385.46348,467.72634 C 390.68344,452.28708 389.31179,477.12444 391.65098,481.97634 C 393.23582,494.61306 390.09442,507.78448 387.11973,519.88259 C 386.64015,526.64883 370.91786,534.28359 384.74473,536.22634 C 396.13369,538.00212 401.51562,526.47191 401.46348,516.91384 C 400.77213,501.2369 406.29923,485.96164 412.21348,471.85134 C 411.49997,460.86823 404.30183,451.1157 409.58848,440.35134 C 409.87021,428.28078 419.52014,421.01223 413.86973,409.28884 C 418.86375,394.90253 416.32751,415.09766 421.52598,418.88259 C 416.28291,425.68511 415.34329,434.50485 413.02598,442.82009 C 409.13984,449.24395 415.535,464.29555 413.49473,449.13259 C 413.15235,442.57086 418.58171,436.99942 420.30723,430.50759 C 425.17233,437.50509 412.6109,453.92788 420.80723,459.72634 C 427.37479,456.30615 422.25525,449.42242 427.71348,443.19509 C 426.62912,433.15724 434.40653,422.82161 427.71348,412.44509 C 433.08801,402.7247 422.34514,394.69493 423.43223,385.03884 C 420.28956,373.96172 408.59813,366.09862 403.36973,355.85134 C 393.24122,349.84357 382.75844,344.13755 370.90098,346.82009 C 360.81607,339.49726 349.98943,351.05531 340.58848,344.78884 C 330.34038,344.02417 321.96098,351.89621 311.52598,348.60134 C 300.08456,354.81037 287.54445,342.03964 275.68223,342.85134 C 268.0325,343.27312 253.13639,343.70538 256.18223,334.07009 L 249.52598,331.85134 C 248.0713,329.39614 247.10181,326.70199 249.46348,324.57009 C 255.74319,314.41176 240.04328,324.86666 244.15098,316.60134 C 236.62219,318.84685 240.40553,312.62913 237.30723,308.35134 C 227.49575,309.17045 240.47383,303.36173 237.36973,299.66384 C 230.61325,303.7926 231.25098,295.64786 230.40098,293.32009 C 228.83539,285.86529 216.15343,292.26923 216.99473,285.03884 C 229.41085,284.75836 241.78363,276.00928 243.80723,263.22634 C 237.06255,260.46123 229.85563,276.00421 222.49473,279.16384 C 206.00464,284.41681 224.65453,274.44637 228.36973,268.91384 C 240.08435,258.27583 220.82503,265.94863 217.86973,270.97634 C 206.22605,280.00249 218.08628,263.43434 224.15098,262.41384 C 222.63539,257.23785 208.76844,255.39677 201.52598,254.44509 z M 188.77598,276.07009 C 188.89534,276.0701 191.30724,276.31789 191.30723,277.35134 C 191.30724,277.86807 191.05333,278.12425 190.83848,278.38259 C 190.02692,278.3826 189.26595,278.12425 188.52598,278.38259 C 188.19182,279.1577 187.63874,280.72634 186.58848,280.72634 C 186.18271,280.72635 185.43226,280.44729 185.43223,279.41384 C 185.43224,278.63877 187.40541,276.57845 188.02598,276.32009 C 188.24082,276.06174 188.27473,276.07009 188.77598,276.07009 z M 192.93223,288.72634 C 193.43349,288.72635 193.83849,289.24087 193.83848,289.75759 C 193.83849,290.53269 191.72388,291.83461 191.15098,292.35134 C 191.36581,293.90151 190.09398,296.22416 188.49473,297.25759 C 187.25355,298.0327 185.70642,297.52211 184.36973,298.03884 C 183.51045,298.2972 182.19091,299.32009 181.71348,299.32009 C 181.57028,299.3201 180.74477,299.32228 180.74473,298.28884 C 180.74474,296.48034 185.91104,292.33682 186.65098,291.82009 C 187.77285,291.30339 189.03995,291.05555 189.99473,290.53884 C 190.97339,290.02212 192.45486,288.72634 192.93223,288.72634 z M 212.08848,303.72634 C 212.58975,303.72635 212.76518,303.96796 212.93223,304.22634 C 212.97998,304.74306 212.83849,305.51375 212.83848,306.28884 C 212.83849,306.80557 213.33852,307.83461 213.33848,308.35134 C 213.33849,308.6097 212.78885,311.72634 211.21348,311.72634 C 211.07028,311.72635 210.21348,311.47019 210.21348,310.69509 C 210.21349,310.17838 210.61974,309.64929 210.61973,309.13259 C 210.61974,308.61587 210.21348,307.5868 210.21348,307.07009 C 210.21349,306.55337 210.46535,303.72634 212.08848,303.72634 z M 234.83848,316.63259 C 235.33958,316.6326 236.20495,317.66384 236.68223,317.66384 C 237.15963,317.66385 237.86109,316.63259 238.33848,316.63259 C 239.65128,316.6326 239.90089,318.17001 239.90098,318.94509 C 239.90098,318.9451 239.41875,320.75759 238.86973,320.75759 C 238.51173,321.01595 238.11755,321.0221 237.80723,321.53884 C 237.52083,322.31393 238.28189,323.08463 237.08848,323.60134 C 235.94258,323.34301 233.91435,322.82845 232.74473,322.57009 C 232.52993,322.31174 232.30725,322.05555 232.30723,321.53884 C 232.30723,320.24704 234.24475,320.25978 234.24473,319.22634 C 234.24473,318.70962 233.83849,318.43892 233.83848,317.66384 C 233.83838,317.66385 234.05079,316.63259 234.83848,316.63259 z M 243.46348,323.82009 C 244.01308,323.64673 244.55658,327.87691 245.65098,331.85134 L 244.55723,331.85134 C 244.45359,331.8963 244.33581,331.91384 244.21348,331.91384 C 244.05684,331.91384 243.92251,331.89587 243.80723,331.85134 L 241.05723,331.85134 C 241.19684,330.86431 241.61079,329.82092 242.46348,328.69509 C 242.87488,325.28707 243.16655,323.91375 243.46348,323.82009 z M 201.83848,329.82009 C 202.45909,329.8201 203.21347,331.08461 203.21348,331.60134 C 203.21348,331.95364 203.22521,332.12013 203.21348,332.22634 L 200.43223,332.22634 C 200.79914,331.23634 201.38437,329.82008 201.83848,329.82009 z M 205.55723,331.85134 C 207.38475,329.58389 210.65645,331.64901 213.30723,331.85134 C 212.98106,333.56314 208.19558,334.75759 208.05723,334.75759 C 206.41024,334.75758 205.52598,333.19726 205.52598,332.16384 C 205.52598,332.0781 205.53368,331.96563 205.55723,331.85134 z M 248.08848,335.00759 C 249.01937,335.00759 249.68223,335.795 249.68223,336.57009 C 249.68221,337.60352 248.05457,340.44509 247.33848,340.44509 C 246.83723,340.44509 246.56068,340.18054 246.36973,339.66384 L 246.36973,336.32009 C 246.36974,335.28664 247.96912,335.00759 248.08848,335.00759 z M 197.55723,342.85134 C 197.30567,342.90842 197.08628,343.58327 196.83848,345.41384 C 191.02377,347.2076 199.8648,353.69545 192.05723,352.22634 C 189.97352,362.97085 193.20416,361.90888 191.71348,366.60134 C 196.71188,373.74808 182.79445,389.30357 194.74473,386.97634 C 194.8994,391.73465 189.50183,400.67424 199.49473,397.60134 C 202.50813,387.02021 187.48762,383.44297 196.96348,373.60134 C 193.38011,369.78737 196.52417,363.06101 198.96348,361.13259 C 198.60181,359.29059 198.50574,357.59067 198.46348,357.47634 C 198.17707,357.21798 197.54027,357.2347 197.18223,356.97634 C 196.77647,356.718 196.33848,355.68055 196.33848,355.16384 C 196.33846,352.83859 198.28258,350.78706 199.21348,347.94509 C 199.33281,347.68673 199.10716,346.89932 199.36973,346.38259 C 199.51594,346.15653 199.6566,346.02268 199.80723,345.94509 C 198.74868,345.47435 198.09628,342.72902 197.55723,342.85134 z M 210.71348,348.19509 C 211.81148,348.19509 211.34602,348.45124 213.08848,349.22634 C 213.63745,349.4847 214.2656,348.97634 214.83848,348.97634 C 215.43522,349.23471 216.07984,349.72634 216.55723,349.72634 C 217.05847,349.72635 218.10591,348.97634 218.86973,348.97634 C 219.4426,348.71798 220.61109,348.43672 221.08848,348.69509 L 222.52598,348.69509 C 222.54987,349.21182 222.31242,349.73253 222.02598,350.50759 C 219.42422,351.54105 219.42077,353.10134 217.46348,353.10134 C 216.98611,353.10134 216.65961,352.85134 216.18223,352.85134 C 215.06035,352.85133 214.63781,355.16384 212.77598,355.16384 C 212.27472,355.16383 211.47212,354.38259 210.99473,354.38259 C 210.49348,354.38259 210.03462,354.91384 209.55723,354.91384 C 208.316,354.91384 207.08848,353.62023 207.08848,352.07009 C 207.08846,349.74482 208.4459,348.19509 210.71348,348.19509 z M 211.90098,362.41384 C 213.5957,362.41383 213.59759,364.9825 213.52598,365.75759 C 214.05111,366.01595 214.71222,366.00759 215.21348,366.00759 C 215.78637,366.00758 216.971,363.94509 218.71348,363.94509 C 219.21469,363.94509 220.50304,364.72634 221.33848,364.72634 L 226.02598,362.91384 C 226.33626,362.91383 226.51342,363.16384 226.77598,363.16384 C 226.82371,363.4222 227.02598,363.17838 227.02598,363.69509 C 227.02597,364.72853 224.78682,365.49925 224.61973,365.75759 C 224.40492,365.7576 224.07325,366.53046 223.61973,366.78884 C 222.49787,367.04718 221.07057,366.80338 219.90098,367.32009 C 219.51902,367.32008 218.93915,368.07009 218.55723,368.07009 C 217.96049,368.32844 216.84712,368.60134 216.36973,368.60134 C 215.86848,368.60134 214.59713,368.35134 214.11973,368.35134 C 212.80692,368.35135 212.50541,370.66384 210.61973,370.66384 C 209.04435,370.66385 208.05723,369.3619 208.05723,368.07009 C 208.05722,366.51992 210.61203,362.41384 211.90098,362.41384 z M 226.77598,376.88259 C 227.25341,376.88258 230.11109,378.16384 230.58848,378.16384 C 231.08971,378.16384 231.63151,377.89095 232.27598,377.63259 C 232.51468,377.89095 232.71348,378.1471 232.71348,378.66384 C 232.71346,379.95562 230.32719,380.22634 230.08848,380.22634 C 229.58724,380.22634 228.746,379.97634 228.24473,379.97634 C 227.76735,379.97634 226.09711,381.00759 225.61973,381.00759 C 225.09462,381.00759 223.55723,380.47017 223.55723,379.69509 C 223.5572,378.40329 225.74961,376.88259 226.77598,376.88259 z M 410.11973,378.16384 C 412.26801,378.16384 412.52598,381.00544 412.52598,382.03884 C 412.52598,382.55556 411.08848,385.64714 411.08848,386.16384 C 411.0885,386.68054 411.56852,387.70963 411.80723,388.22634 C 412.28461,389.00141 413.70483,389.79502 414.18223,390.57009 C 415.37571,391.86189 415.36973,392.37205 415.36973,393.66384 C 415.36973,395.21401 414.65695,395.71362 413.46348,398.03884 C 412.74739,398.81393 412.74205,400.1304 412.02598,401.16384 L 411.30723,401.16384 C 411.06854,400.90548 410.36973,400.11807 410.36973,399.60134 L 410.36973,396.75759 C 410.36973,394.43236 408.21348,391.58681 408.21348,391.07009 C 408.2135,390.55337 409.17359,390.04721 409.65098,389.78884 C 409.41229,389.53048 409.18223,389.26595 409.18223,389.00759 C 409.18224,384.87384 407.74473,385.38082 407.74473,382.53884 C 407.74472,382.02211 408.21018,378.16384 410.11973,378.16384 z M 216.21348,378.66384 C 217.43084,378.66384 217.01436,381.00759 218.08848,381.00759 C 218.56589,381.00759 219.36109,380.22634 219.83848,380.22634 C 220.76936,380.22634 221.77598,380.7554 221.77598,381.78884 C 221.77598,382.04718 221.39266,383.58463 220.55723,384.10134 C 220.03211,384.10133 219.33235,383.84298 218.80723,384.10134 C 218.32981,384.3597 217.87836,384.63259 217.40098,384.63259 C 215.87334,384.63259 214.55723,382.7994 214.55723,381.50759 C 214.55722,380.47415 214.80519,378.66384 216.21348,378.66384 z M 209.40098,384.10134 C 210.02156,384.10133 210.55818,384.1075 211.36973,384.88259 C 211.44134,385.65768 211.30033,386.67834 211.68223,387.19509 C 212.08801,387.97018 212.80723,389.0221 212.80723,389.53884 C 212.80721,390.57228 212.08236,390.57009 211.55723,390.57009 C 211.05595,390.57009 210.94088,390.28884 210.46348,390.28884 C 209.96223,390.28884 208.72212,391.60134 208.24473,391.60134 C 206.66936,391.60134 206.64612,389.25977 205.61973,388.22634 C 204.78428,387.70963 203.46947,387.47019 202.27598,386.69509 L 202.27598,385.91384 C 202.87272,385.6555 203.52472,385.38259 204.02598,385.38259 C 205.33879,385.38258 205.76781,386.41384 206.65098,386.41384 C 207.86831,386.41384 207.30047,384.10134 209.40098,384.10134 z M 214.08848,392.88259 C 215.92646,392.88259 215.26139,395.22634 216.93223,395.22634 C 217.40965,395.22634 218.86846,394.16384 219.36973,394.16384 C 220.94513,394.16384 221.77598,397.53664 221.77598,398.57009 C 221.77598,399.34519 221.16872,400.63259 220.61973,400.63259 C 219.4024,400.63258 218.2664,399.34519 217.93223,398.57009 L 217.43223,398.57009 C 215.66589,400.63696 216.25196,401.41384 214.55723,401.41384 C 212.95798,401.41383 212.21348,397.79103 212.21348,396.75759 C 212.21346,396.24087 212.27441,392.88259 214.08848,392.88259 z M 340.43223,395.72634 C 340.9096,395.72634 341.38104,395.71801 341.61973,395.97634 C 342.57454,396.75144 343.27865,398.31789 343.99473,399.35134 C 344.23343,399.60967 344.49473,400.36588 344.49473,400.88259 C 344.49471,401.39932 343.99473,401.92837 343.99473,402.44509 C 343.99474,402.96183 344.49473,404.26374 344.49473,405.03884 C 344.49471,405.81391 343.52333,408.13259 342.80723,408.13259 C 341.37508,408.1326 340.43223,405.27433 340.43223,404.75759 C 340.4322,404.24087 341.15098,400.8993 341.15098,400.38259 C 341.15098,398.83242 339.46348,399.08284 339.46348,396.75759 C 339.46347,395.98249 339.95485,395.72634 340.43223,395.72634 z M 299.11973,402.69509 C 300.07449,402.69509 300.33848,404.49923 300.33848,404.75759 C 300.33847,405.27433 299.83848,405.02213 299.83848,405.53884 C 299.8385,406.05555 300.55723,406.58461 300.55723,407.10134 C 300.55722,408.13478 300.07448,409.16384 299.11973,409.16384 C 297.68758,409.16383 297.21348,407.35355 297.21348,406.32009 C 297.21349,405.54503 297.44887,402.69509 299.11973,402.69509 z M 292.46348,412.25759 C 292.94087,412.25759 293.15098,412.52215 293.15098,413.03884 C 293.15099,413.55556 292.21348,415.11588 292.21348,415.63259 C 292.21349,416.14932 293.86973,419.49087 293.86973,420.00759 C 293.86971,420.5243 293.38968,421.55339 293.15098,422.07009 C 292.67361,422.58681 290.30455,425.94509 289.58848,425.94509 C 288.395,425.94509 288.15098,423.38259 288.15098,423.38259 C 288.15095,422.60751 289.58848,420.52431 289.58848,420.00759 C 289.58848,419.49086 289.11973,418.71181 289.11973,418.19509 C 289.11976,417.16166 289.83785,412.25759 292.46348,412.25759 z M 356.43223,413.57009 C 356.90957,413.57009 357.59979,414.06173 357.83848,414.32009 C 358.31586,414.57846 358.32985,415.11588 358.80723,415.63259 C 359.04592,415.63259 359.26734,415.62422 359.74473,415.88259 C 359.98342,416.14095 359.99473,416.39711 359.99473,416.91384 C 359.99471,417.43055 360.012,418.19509 359.05723,418.19509 C 358.10243,418.1951 355.46348,415.61187 355.46348,414.32009 C 355.46351,413.80337 355.71348,414.07845 355.71348,413.82009 C 355.95217,413.56173 355.95482,413.57009 356.43223,413.57009 z M 226.30723,414.16384 C 227.05651,418.27385 223.18577,418.93949 226.30723,414.16384 z M 312.99473,417.44509 C 313.06553,417.42604 313.13889,417.44509 313.21348,417.44509 C 314.40692,417.44509 315.11973,418.45125 315.11973,419.22634 C 315.11971,420.51812 313.2108,422.07009 312.49473,422.07009 C 311.77868,422.07008 311.30723,420.79721 311.30723,420.53884 C 311.3072,420.05442 311.93267,417.73083 312.99473,417.44509 z M 322.77598,417.94509 C 323.25336,417.94508 324.20485,419.24924 324.68223,419.50759 C 324.92092,419.76595 325.63104,419.75759 325.86973,419.75759 C 326.10841,420.01595 326.33848,420.27212 326.33848,420.78884 C 326.3385,421.30557 324.42956,423.12206 323.71348,424.41384 C 323.47479,424.41383 323.47212,424.66384 322.99473,424.66384 C 322.51733,424.66384 321.80723,423.89096 321.80723,423.63259 C 321.80722,422.34077 321.55723,420.52431 321.55723,420.00759 C 321.55723,419.49086 321.82121,417.94509 322.77598,417.94509 z M 271.93223,419.50759 C 273.12569,419.50759 274.05723,419.75539 274.05723,420.78884 C 274.05722,421.30557 273.58848,422.33463 273.58848,422.85134 C 273.58849,423.36808 275.27598,425.42834 275.27598,425.94509 C 275.27595,426.46178 275.01467,427.24924 274.77598,427.50759 C 274.2986,428.02432 271.19086,430.10134 270.71348,430.10134 C 269.75872,430.10133 269.77598,429.32845 269.77598,429.07009 C 269.776,428.55336 270.7361,427.75143 271.21348,426.97634 C 270.49739,426.718 269.77598,424.67439 269.77598,423.38259 C 269.776,422.09078 270.26139,419.50759 271.93223,419.50759 z M 300.33848,422.60134 C 301.53195,422.60134 301.52598,424.65551 301.52598,424.91384 C 301.52597,428.53089 298.65963,426.72593 298.18223,430.60134 C 297.94353,430.85971 297.47212,431.13259 296.99473,431.13259 C 295.3239,431.1326 295.08848,429.04719 295.08848,428.78884 C 295.08849,428.27212 295.31854,427.24307 295.55723,426.72634 C 296.2733,425.95128 297.21616,425.4389 297.93223,424.66384 C 298.40964,424.1471 298.89234,423.36809 299.36973,422.85134 C 299.36972,422.59299 299.86109,422.60134 300.33848,422.60134 z M 274.30723,432.16384 C 274.78459,432.16383 275.73611,432.66384 276.21348,432.66384 C 276.69091,432.66385 277.4236,432.16384 277.90098,432.16384 C 279.33312,432.16383 280.02598,433.69291 280.02598,434.72634 C 280.02596,435.75979 279.80455,436.03884 279.08848,436.03884 C 278.61108,436.03883 278.12835,435.50759 277.65098,435.50759 C 277.17359,435.50759 273.81588,437.57009 273.33848,437.57009 C 272.14498,437.5701 271.93223,437.06393 271.93223,436.28884 C 271.93221,435.51376 272.87507,432.16384 274.30723,432.16384 z M 283.86973,432.16384 C 285.54057,432.16383 287.43223,434.98868 287.43223,436.53884 C 287.43224,438.089 285.51466,438.88259 285.27598,438.88259 C 284.79861,438.88258 284.09712,438.35134 283.61973,438.35134 C 283.14235,438.35133 281.47212,439.38259 280.99473,439.38259 C 279.56256,439.38258 279.80723,438.10134 279.80723,438.10134 C 279.80722,436.80954 280.26137,436.54105 281.93223,435.50759 C 282.88699,434.73251 282.1736,433.72017 282.65098,432.94509 C 282.88968,432.42838 283.39233,432.16384 283.86973,432.16384 z M 349.65098,438.94509 C 341.00365,445.43028 351.98289,447.60707 349.65098,438.94509 z M 268.27598,439.38259 C 269.732,439.38258 271.77598,442.75538 271.77598,443.78884 C 271.776,445.08061 271.05235,446.10134 270.02598,446.10134 C 267.80611,446.10134 265.93223,443.51196 265.93223,441.44509 C 265.93221,439.89488 267.89407,439.38259 268.27598,439.38259 z M 327.93223,444.63259 C 318.159,445.65995 326.66417,451.23518 327.93223,444.63259 z M 381.24473,446.10134 C 381.72211,446.10134 382.90365,447.67001 383.61973,448.44509 C 383.61975,448.44508 383.86973,448.95961 383.86973,449.47634 C 383.86975,449.99307 383.37838,450.75759 382.90098,450.75759 C 381.70752,450.75759 379.55723,447.9222 379.55723,447.66384 C 379.55721,446.88874 380.76735,446.10134 381.24473,446.10134 z M 298.15098,446.44509 C 292.39768,449.53459 305.5271,447.96162 298.15098,446.44509 z M 343.21348,448.75759 C 337.88897,451.43755 327.52052,454.38014 339.30723,453.19509 C 338.76946,451.37655 348.72681,449.24528 343.21348,448.75759 z M 376.24473,449.97634 C 376.72213,449.97635 377.67359,450.24086 378.15098,450.75759 C 378.38969,451.2743 378.63103,452.05338 378.86973,452.57009 C 378.86971,453.08679 379.79858,453.35749 380.27598,454.13259 C 380.51467,454.39095 380.77598,455.14713 380.77598,455.66384 C 380.77596,456.95565 379.09711,457.47634 378.61973,457.47634 C 378.14232,457.47635 377.17091,457.21182 376.93223,456.69509 C 375.9774,455.14493 374.55723,452.30557 374.55723,451.78884 C 374.55723,451.27213 375.05128,449.97634 376.24473,449.97634 z M 205.02598,450.00759 C 204.66142,449.99328 204.15457,450.04896 203.52598,450.16384 L 203.21348,450.13259 C 204.24555,452.81338 207.57789,450.10778 205.02598,450.00759 z M 207.27598,450.25759 C 207.09358,450.27789 206.91705,450.30553 206.71348,450.38259 C 209.16271,451.13514 208.55276,450.11547 207.27598,450.25759 z M 208.46348,450.53884 C 211.2862,457.11555 207.15021,458.85674 207.65098,460.72634 C 209.8699,460.61832 211.58618,461.13449 212.58848,461.94509 C 212.57664,461.85141 212.55723,461.72843 212.55723,461.66384 C 212.55723,460.63041 213.04169,459.60134 213.90098,459.60134 C 214.80805,459.60133 215.49473,461.65549 215.49473,461.91384 C 215.49476,462.9473 214.80583,464.49923 213.58848,464.75759 C 213.52926,464.66262 213.487,464.54748 213.43223,464.44509 C 212.99875,465.68532 211.36331,466.92217 208.11973,467.60134 C 211.05879,479.20699 213.61026,491.06419 211.61973,503.07009 C 214.66924,511.39935 197.18353,520.48054 203.86973,523.63259 C 207.98482,515.43444 205.00339,531.59339 214.08848,527.41384 C 223.75914,529.24383 217.95496,516.62146 225.86973,515.25759 C 228.09052,500.93339 222.22787,485.55621 226.80723,472.07009 C 231.99396,465.50206 235.7157,449.51458 223.24473,451.63259 C 218.31621,451.26699 213.39201,450.90444 208.46348,450.53884 z M 344.61973,453.03884 C 341.62612,455.66925 352.70753,464.0054 341.68223,460.32009 C 338.41727,463.89824 342.4237,473.06961 339.86973,479.35134 C 340.47031,495.13709 333.58317,511.4875 320.74473,520.85134 C 317.14455,527.3378 327.74891,517.05529 324.11973,524.97634 C 333.02399,530.67704 338.316,519.85533 342.02598,514.60134 C 342.0468,498.35599 352.06565,484.88038 361.36973,472.53884 C 356.21146,469.04125 358.23591,459.0476 347.77598,461.53884 C 353.16211,457.13386 352.07663,455.53133 344.61973,453.03884 z M 366.08848,463.13259 C 359.02513,465.32124 368.28605,467.85029 366.08848,463.13259 z "
           style="fill:#ffffff;fill-opacity:1;fill-rule:evenodd;stroke:none;stroke-width:1.32700002;stroke-linecap:round;stroke-linejoin:miter;stroke-miterlimit:3.86400008;stroke-dasharray:none"
           id="path3772" />
      </g>
      <rect
         width="24.043921"
         height="0"
         x="360.45242"
         y="277.74576"
         style="fill:#2b5df2;fill-opacity:0.56078384;fill-rule:evenodd;stroke:none;stroke-width:2.9000001;stroke-linecap:butt;stroke-linejoin:miter;stroke-miterlimit:4;stroke-dasharray:none;stroke-opacity:1"
         id="rect3774" />
      <g
         transform="translate(6.1058,11.3013)"
         style="stroke:#000000;stroke-opacity:1"
         id="g3817">
        <g
           id="g3827" />
      </g>
      <path
         d="M 232.2027,476.57147 L 182.9719,560.79536 C 178.15459,560.70971 176.34676,560.59483 175.23713,553.82721 L 220.96535,475.38481 L 232.2027,476.57147 z "
         style="fill:#ffffff;fill-rule:evenodd;stroke:#000000;stroke-width:3;stroke-linecap:butt;stroke-linejoin:miter;stroke-miterlimit:3.97732997;stroke-dasharray:none;stroke-opacity:1"
         id="path3819" />
      <path
         d="M 415.37665,283.10696 L 409.22951,295.64712 L 417.09785,293.68004 L 415.37665,283.10696 z "
         style="fill:#ffffff;fill-rule:evenodd;stroke:#000000;stroke-width:3;stroke-linecap:round;stroke-linejoin:round;stroke-miterlimit:3.97732997;stroke-dasharray:none;stroke-opacity:1"
         id="path3855" />
      <path
         d="M 363.43853,248.99665 L 393.17616,279.59626 C 400.93381,286.38671 408.69146,293.15835 416.4491,292.09468 C 415.02064,288.36115 414.04758,282.03844 418.60401,282.18213 C 427.30172,282.45642 432.78901,287.05705 436.27419,291.23272 C 455.84893,314.68562 477.64052,322.86906 498.33536,338.64056 C 481.1451,338.8016 466.02818,341.7271 445.75577,337.7786 L 486.69888,377.42878 C 472.16603,377.10209 457.22939,378.59252 444.8938,368.37819 C 430.16594,359.04567 413.81062,352.9681 402.22675,337.34761 L 397.05499,348.5531 C 388.14807,347.69492 379.90496,347.2819 370.33422,339.50251 C 355.35755,327.32903 343.64637,315.82075 333.70089,303.30017 L 363.43853,248.99665 z "
         style="fill:#ffffff;fill-rule:evenodd;stroke:#000000;stroke-width:3;stroke-linecap:butt;stroke-linejoin:miter;stroke-miterlimit:3.97732997;stroke-dasharray:none;stroke-opacity:1"
         id="path3821" />
      <path
         d="M 397.17929,347.69114 L 417.00439,293.81861"
         style="fill:none;fill-rule:evenodd;stroke:#000000;stroke-width:3;stroke-linecap:round;stroke-linejoin:miter;stroke-miterlimit:3.97732997;stroke-dasharray:none;stroke-opacity:1"
         id="path3825" />
      <path
         d="M 339.60711,210.18419 L 363.99851,229.37421 L 382.66633,199.24217 C 387.53335,200.79327 388.70231,201.96515 390.71132,205.80266 L 373.45615,234.91776 L 396.54329,251.61647 C 394.89128,257.60242 394.53156,258.79366 391.15824,262.48454 L 367.55809,245.00592 L 250.33406,445.5524 L 235.17391,451.01137 L 358.64317,239.21161 L 332.89607,219.90531 C 334.18356,214.0116 334.88457,213.78785 339.60711,210.18419 z "
         style="fill:#ffffff;fill-rule:evenodd;stroke:#000000;stroke-width:3;stroke-linecap:butt;stroke-linejoin:miter;stroke-miterlimit:3.97732997;stroke-dasharray:none;stroke-opacity:1"
         id="path3857" />
    </g>
    <path
       style="opacity:1;color:#000000;fill:#e20909;fill-opacity:1;fill-rule:evenodd;stroke:#000000;stroke-width:1.24799526;stroke-linecap:butt;stroke-linejoin:miter;marker:none;marker-start:none;marker-mid:none;marker-end:none;stroke-miterlimit:4;stroke-dasharray:none;stroke-dashoffset:0;stroke-opacity:1;visibility:visible;display:inline;overflow:visible;enable-background:accumulate"
       d="M 360.12928,171.08742 L 350.76192,186.02049 L 335.82885,176.65312 L 329.87063,186.15147 L 344.80368,195.51884 L 335.43634,210.45191 L 344.95121,216.42049 L 354.31857,201.48742 L 369.25164,210.85479 L 375.20986,201.35644 L 360.2768,191.98908 L 369.64415,177.056 L 360.12928,171.08742 z "
       id="rect5124" />
  </g>
  <g
     inkscape:groupmode="layer"
     id="layer4"
     inkscape:label="Meubles"
     sodipodi:insensitive="true" />
  <g
     inkscape:groupmode="layer"
     id="layer2"
     inkscape:label="Reflet final"
     sodipodi:insensitive="true">
    <path
       sodipodi:nodetypes="cccccc"
       d="M 300.00001,658.5 C 300.00001,658.5 598.50001,546.17969 598.50001,260.72817 C 598.50001,-24.723334 598.50001,2.1764865 598.50001,2.1764865 L 1.5,2.1764865 L 1.5,260.72817 C 1.5,546.17969 300.00001,658.5 300.00001,658.5 z "
       style="opacity:1;fill:url(#radialGradient3163);fill-opacity:1;fill-rule:evenodd;stroke:none;stroke-width:1px;stroke-linecap:butt;stroke-linejoin:miter;stroke-opacity:1"
       id="path2875"
       inkscape:export-xdpi="144"
       inkscape:export-ydpi="144" />
  </g>
  <g
     inkscape:groupmode="layer"
     id="layer1"
     inkscape:label="Contour final"
     sodipodi:insensitive="true">
    <path
       sodipodi:nodetypes="cccccc"
       d="M 299.99999,658.50028 C 299.99999,658.50028 1.5,546.17992 1.5,260.72828 C 1.5,-24.723336 1.5,2.1764957 1.5,2.1764957 L 598.49999,2.1764957 L 598.49999,260.72828 C 598.49999,546.17992 299.99999,658.50028 299.99999,658.50028 z "
       style="opacity:1;fill:none;fill-opacity:1;fill-rule:evenodd;stroke:#000000;stroke-width:3.00000048;stroke-linecap:butt;stroke-linejoin:miter;stroke-miterlimit:4;stroke-dasharray:none;stroke-opacity:1"
       id="path1411"
       inkscape:export-xdpi="144"
       inkscape:export-ydpi="144" />
  </g>
</svg>
